<svg version="1.1" id="Layer_1" xmlns="http://www.w3.org/2000/svg" xmlns:xlink="http://www.w3.org/1999/xlink" x="0px" y="0px"
	 width="100%" viewBox="0 0 1741 1585" enable-background="new 0 0 1741 1585" xml:space="preserve">
<path fill="#FFFFFF" opacity="1.000000" stroke="none" 
	d="
M1037.000000,1586.000000 
	C691.333435,1586.000000 346.166870,1586.000000 1.000232,1586.000000 
	C1.000154,1057.666870 1.000154,529.333862 1.000077,1.000586 
	C581.332886,1.000391 1161.665771,1.000391 1741.999023,1.000195 
	C1741.999268,529.332703 1741.999268,1057.665405 1741.999634,1585.999023 
	C1507.166626,1586.000000 1272.333374,1586.000000 1037.000000,1586.000000 
M792.881470,111.801346 
	C792.881470,111.801346 792.655457,111.865662 792.655457,111.865662 
	C792.655457,111.865662 793.129211,111.879723 793.093079,112.601707 
	C793.801575,113.918602 794.481079,115.252052 795.223206,116.549690 
	C799.844177,124.629379 802.821472,133.299744 803.128906,142.588577 
	C803.450867,152.316193 801.673401,161.671600 795.975647,169.804047 
	C698.107971,143.096375 601.346069,195.473160 570.185791,288.125641 
	C541.996643,371.943970 574.848999,468.553406 663.323669,512.688416 
	C743.253479,552.560913 843.693665,529.578979 897.808105,449.770721 
	C924.901917,409.812500 933.647461,365.278442 926.417603,318.297546 
	C916.997131,257.081818 882.713440,212.509750 828.627869,182.518677 
	C834.130554,173.082001 842.769958,167.968323 852.508911,163.066010 
	C840.821228,159.292740 830.569580,161.239822 819.931641,166.947479 
	C822.302979,142.381912 813.673828,124.117851 792.881470,111.801346 
M347.582581,593.947144 
	C346.805237,594.526428 345.796295,594.950073 345.286377,595.708984 
	C340.193024,603.288879 334.621246,610.617615 330.258575,618.603943 
	C319.530334,638.243042 308.247406,657.700439 299.288300,678.151184 
	C289.925690,699.523132 282.414764,721.776428 275.260345,744.019470 
	C270.866882,757.678711 268.059784,771.938538 265.630188,786.115479 
	C262.773804,802.782898 260.345123,819.597839 259.119781,836.449707 
	C257.878113,853.525879 257.454926,870.767090 258.267334,887.860168 
	C259.259491,908.735474 261.016144,929.666504 264.118622,950.321594 
	C266.795746,968.144897 271.585510,985.673035 275.866150,1003.228027 
	C281.753815,1027.373657 290.784515,1050.458130 301.139862,1072.977295 
	C306.526794,1084.692017 312.940460,1095.950562 319.198975,1107.244019 
	C324.960938,1117.641235 330.526367,1128.231689 337.274963,1137.977661 
	C346.898193,1151.875122 357.622528,1165.005249 367.693970,1178.598389 
	C380.655121,1196.091553 395.987000,1211.399536 411.746429,1226.259399 
	C421.385315,1235.348145 431.460205,1244.044678 441.908478,1252.187012 
	C454.856171,1262.277222 467.785309,1272.626343 481.820221,1281.030396 
	C501.961792,1293.091187 522.939575,1303.800415 543.868042,1314.483887 
	C555.054016,1320.193970 566.558411,1325.677002 578.493896,1329.438843 
	C602.682617,1337.062500 627.006714,1344.625488 651.757141,1349.988525 
	C674.071411,1354.823730 696.949463,1357.618164 719.728271,1359.570190 
	C737.891479,1361.126709 756.281189,1360.263062 774.567383,1360.111084 
	C806.763794,1359.843384 838.449158,1355.225342 869.642883,1347.510498 
	C886.546936,1343.329590 903.600952,1339.206909 919.866516,1333.128784 
	C941.302734,1325.118530 962.326416,1315.828613 982.965393,1305.918335 
	C998.265930,1298.571411 1013.105347,1290.029175 1027.352905,1280.790161 
	C1041.795288,1271.425049 1055.463989,1260.816040 1069.106567,1250.279419 
	C1095.167725,1230.151733 1118.003540,1206.659790 1139.232788,1181.571655 
	C1156.608276,1161.037598 1172.351685,1139.261963 1185.342773,1115.742310 
	C1196.175171,1096.130493 1206.504150,1076.123779 1215.333740,1055.552490 
	C1226.211060,1030.210815 1234.009766,1003.735168 1240.084717,976.746033 
	C1245.974976,950.578552 1249.658325,924.084961 1250.677124,897.412537 
	C1251.525513,875.201050 1250.704346,852.809875 1248.856812,830.645447 
	C1247.139526,810.043640 1243.996826,789.447998 1239.796509,769.199158 
	C1235.998535,750.890198 1230.620850,732.821045 1224.699951,715.059570 
	C1213.897705,682.654541 1199.237915,651.903992 1181.253540,622.866577 
	C1171.921387,607.799133 1161.692993,593.268616 1151.449829,578.792480 
	C1147.184937,572.764954 1141.826294,567.511353 1137.134277,561.254883 
	C1158.379517,534.642822 1178.710571,507.232300 1201.089111,481.610138 
	C1232.793701,445.310120 1265.127075,409.469696 1298.768066,374.969849 
	C1360.963623,311.186462 1428.148926,252.852081 1498.153198,197.773544 
	C1529.531372,173.085587 1560.996948,148.508713 1592.389526,123.839035 
	C1617.237671,104.312233 1642.048706,84.737923 1666.842285,65.141647 
	C1671.051270,61.814884 1675.088257,58.270576 1679.204712,54.826786 
	C1678.936523,54.419491 1678.668457,54.012199 1678.400269,53.604904 
	C1676.513550,54.412189 1674.564941,55.100399 1672.749146,56.044220 
	C1628.473511,79.058449 1584.043823,101.784355 1540.011719,125.255829 
	C1514.046265,139.096863 1488.800171,154.280380 1463.079590,168.588943 
	C1418.583984,193.342224 1373.553223,217.164337 1329.518921,242.707733 
	C1280.427002,271.184937 1233.204224,302.651855 1187.546021,336.437653 
	C1132.734619,376.996429 1081.255249,421.364746 1033.646484,470.178375 
	C997.385803,507.356842 963.710327,546.783691 932.178345,588.045166 
	C905.031067,623.568970 879.191833,660.026001 855.993469,698.247803 
	C829.703247,741.563843 804.080444,785.284973 778.187683,828.842041 
	C775.622192,833.157654 773.197998,837.557251 770.537537,842.216736 
	C769.545837,841.145142 769.003601,840.724731 768.671570,840.176941 
	C745.430908,801.834473 718.137634,766.471375 688.711670,732.772034 
	C639.584717,676.510559 585.565186,625.291870 528.153137,577.528625 
	C487.082428,543.360291 444.674957,511.020782 400.830170,480.528503 
	C350.238464,445.344025 297.987610,412.848602 243.804611,383.475311 
	C189.132706,353.837006 133.003799,327.437225 74.111839,307.196991 
	C70.726135,306.033386 67.119400,305.512878 63.615528,304.693085 
	C63.434433,305.077271 63.253342,305.461456 63.072247,305.845642 
	C63.923035,306.595947 64.755424,307.368378 65.627274,308.093384 
	C88.626328,327.218597 111.977440,345.938324 134.553253,365.550568 
	C171.760376,397.873566 206.632965,432.685913 240.008804,468.905273 
	C268.174896,499.471191 295.367432,530.939819 322.736328,562.231506 
	C331.678589,572.455383 339.820404,583.379333 347.582581,593.947144 
z"/>
<path fill="#D0BF87" opacity="1.000000" stroke="none" 
	d="
M1136.964966,561.905823 
	C1141.826294,567.511353 1147.184937,572.764954 1151.449829,578.792480 
	C1161.692993,593.268616 1171.921387,607.799133 1181.253540,622.866577 
	C1199.237915,651.903992 1213.897705,682.654541 1224.699951,715.059570 
	C1230.620850,732.821045 1235.998535,750.890198 1239.796509,769.199158 
	C1243.996826,789.447998 1247.139526,810.043640 1248.856812,830.645447 
	C1250.704346,852.809875 1251.525513,875.201050 1250.677124,897.412537 
	C1249.658325,924.084961 1245.974976,950.578552 1240.084717,976.746033 
	C1234.009766,1003.735168 1226.211060,1030.210815 1215.333740,1055.552490 
	C1206.504150,1076.123779 1196.175171,1096.130493 1185.342773,1115.742310 
	C1172.351685,1139.261963 1156.608276,1161.037598 1139.232788,1181.571655 
	C1118.003540,1206.659790 1095.167725,1230.151733 1069.106567,1250.279419 
	C1055.463989,1260.816040 1041.795288,1271.425049 1027.352905,1280.790161 
	C1013.105347,1290.029175 998.265930,1298.571411 982.965393,1305.918335 
	C962.326416,1315.828613 941.302734,1325.118530 919.866516,1333.128784 
	C903.600952,1339.206909 886.546936,1343.329590 869.642883,1347.510498 
	C838.449158,1355.225342 806.763794,1359.843384 774.567383,1360.111084 
	C756.281189,1360.263062 737.891479,1361.126709 719.728271,1359.570190 
	C696.949463,1357.618164 674.071411,1354.823730 651.757141,1349.988525 
	C627.006714,1344.625488 602.682617,1337.062500 578.493896,1329.438843 
	C566.558411,1325.677002 555.054016,1320.193970 543.868042,1314.483887 
	C522.939575,1303.800415 501.961792,1293.091187 481.820221,1281.030396 
	C467.785309,1272.626343 454.856171,1262.277222 441.908478,1252.187012 
	C431.460205,1244.044678 421.385315,1235.348145 411.746429,1226.259399 
	C395.987000,1211.399536 380.655121,1196.091553 367.693970,1178.598389 
	C357.622528,1165.005249 346.898193,1151.875122 337.274963,1137.977661 
	C330.526367,1128.231689 324.960938,1117.641235 319.198975,1107.244019 
	C312.940460,1095.950562 306.526794,1084.692017 301.139862,1072.977295 
	C290.784515,1050.458130 281.753815,1027.373657 275.866150,1003.228027 
	C271.585510,985.673035 266.795746,968.144897 264.118622,950.321594 
	C261.016144,929.666504 259.259491,908.735474 258.267334,887.860168 
	C257.454926,870.767090 257.878113,853.525879 259.119781,836.449707 
	C260.345123,819.597839 262.773804,802.782898 265.630188,786.115479 
	C268.059784,771.938538 270.866882,757.678711 275.260345,744.019470 
	C282.414764,721.776428 289.925690,699.523132 299.288300,678.151184 
	C308.247406,657.700439 319.530334,638.243042 330.258575,618.603943 
	C334.621246,610.617615 340.193024,603.288879 345.286377,595.708984 
	C345.796295,594.950073 346.805237,594.526428 348.279144,593.974365 
	C362.378937,610.879639 376.202240,627.443848 389.097198,644.701721 
	C415.223816,679.668213 441.103027,714.826721 466.583344,750.266235 
	C481.990906,771.695984 496.853546,793.544495 511.249969,815.667603 
	C530.073792,844.594299 548.540344,873.767517 566.517944,903.226868 
	C583.385193,930.866699 599.819397,958.790039 615.694824,987.010193 
	C630.095703,1012.609192 643.696655,1038.666992 657.254578,1064.728394 
	C667.431824,1084.291504 677.305481,1104.027954 686.720825,1123.967529 
	C696.368958,1144.400146 705.538330,1165.069214 714.463318,1185.829956 
	C722.133240,1203.671021 729.187622,1221.777466 736.463562,1239.786865 
	C739.282043,1246.763184 741.961182,1253.795776 744.901062,1261.306396 
	C745.802002,1260.226196 746.326416,1259.799438 746.593689,1259.248047 
	C759.235229,1233.164062 771.790710,1207.038330 784.492310,1180.983643 
	C800.286682,1148.584717 816.108704,1116.198608 832.091736,1083.892578 
	C843.491699,1060.850464 855.237915,1037.979980 866.716858,1014.976624 
	C876.936462,994.496887 886.650391,973.757202 897.216492,953.459656 
	C912.936768,923.261108 928.667542,893.044678 945.376831,863.389709 
	C970.236328,819.270020 995.473083,775.346191 1021.474915,731.892883 
	C1038.865356,702.830627 1057.614624,674.566833 1076.231079,646.258362 
	C1087.895386,628.521484 1100.281128,611.249634 1112.649536,593.988647 
	C1120.462524,583.085022 1128.840332,572.586182 1136.964966,561.905823 
z"/>
<path fill="#017980" opacity="1.000000" stroke="none" 
	d="
M1137.049561,561.580322 
	C1128.840332,572.586182 1120.462524,583.085022 1112.649536,593.988647 
	C1100.281128,611.249634 1087.895386,628.521484 1076.231079,646.258362 
	C1057.614624,674.566833 1038.865356,702.830627 1021.474915,731.892883 
	C995.473083,775.346191 970.236328,819.270020 945.376831,863.389709 
	C928.667542,893.044678 912.936768,923.261108 897.216492,953.459656 
	C886.650391,973.757202 876.936462,994.496887 866.716858,1014.976624 
	C855.237915,1037.979980 843.491699,1060.850464 832.091736,1083.892578 
	C816.108704,1116.198608 800.286682,1148.584717 784.492310,1180.983643 
	C771.790710,1207.038330 759.235229,1233.164062 746.593689,1259.248047 
	C746.326416,1259.799438 745.802002,1260.226196 744.901062,1261.306396 
	C741.961182,1253.795776 739.282043,1246.763184 736.463562,1239.786865 
	C729.187622,1221.777466 722.133240,1203.671021 714.463318,1185.829956 
	C705.538330,1165.069214 696.368958,1144.400146 686.720825,1123.967529 
	C677.305481,1104.027954 667.431824,1084.291504 657.254578,1064.728394 
	C643.696655,1038.666992 630.095703,1012.609192 615.694824,987.010193 
	C599.819397,958.790039 583.385193,930.866699 566.517944,903.226868 
	C548.540344,873.767517 530.073792,844.594299 511.249969,815.667603 
	C496.853546,793.544495 481.990906,771.695984 466.583344,750.266235 
	C441.103027,714.826721 415.223816,679.668213 389.097198,644.701721 
	C376.202240,627.443848 362.378937,610.879639 348.651978,593.992310 
	C339.820404,583.379333 331.678589,572.455383 322.736328,562.231506 
	C295.367432,530.939819 268.174896,499.471191 240.008804,468.905273 
	C206.632965,432.685913 171.760376,397.873566 134.553253,365.550568 
	C111.977440,345.938324 88.626328,327.218597 65.627274,308.093384 
	C64.755424,307.368378 63.923035,306.595947 63.072247,305.845642 
	C63.253342,305.461456 63.434433,305.077271 63.615528,304.693085 
	C67.119400,305.512878 70.726135,306.033386 74.111839,307.196991 
	C133.003799,327.437225 189.132706,353.837006 243.804611,383.475311 
	C297.987610,412.848602 350.238464,445.344025 400.830170,480.528503 
	C444.674957,511.020782 487.082428,543.360291 528.153137,577.528625 
	C585.565186,625.291870 639.584717,676.510559 688.711670,732.772034 
	C718.137634,766.471375 745.430908,801.834473 768.671570,840.176941 
	C769.003601,840.724731 769.545837,841.145142 770.537537,842.216736 
	C773.197998,837.557251 775.622192,833.157654 778.187683,828.842041 
	C804.080444,785.284973 829.703247,741.563843 855.993469,698.247803 
	C879.191833,660.026001 905.031067,623.568970 932.178345,588.045166 
	C963.710327,546.783691 997.385803,507.356842 1033.646484,470.178375 
	C1081.255249,421.364746 1132.734619,376.996429 1187.546021,336.437653 
	C1233.204224,302.651855 1280.427002,271.184937 1329.518921,242.707733 
	C1373.553223,217.164337 1418.583984,193.342224 1463.079590,168.588943 
	C1488.800171,154.280380 1514.046265,139.096863 1540.011719,125.255829 
	C1584.043823,101.784355 1628.473511,79.058449 1672.749146,56.044220 
	C1674.564941,55.100399 1676.513550,54.412189 1678.400269,53.604904 
	C1678.668457,54.012199 1678.936523,54.419491 1679.204712,54.826786 
	C1675.088257,58.270576 1671.051270,61.814884 1666.842285,65.141647 
	C1642.048706,84.737923 1617.237671,104.312233 1592.389526,123.839035 
	C1560.996948,148.508713 1529.531372,173.085587 1498.153198,197.773544 
	C1428.148926,252.852081 1360.963623,311.186462 1298.768066,374.969849 
	C1265.127075,409.469696 1232.793701,445.310120 1201.089111,481.610138 
	C1178.710571,507.232300 1158.379517,534.642822 1137.049561,561.580322 
z"/>
<path fill="#017980" opacity="1.000000" stroke="none" 
	d="
M793.054443,111.967674 
	C813.673828,124.117851 822.302979,142.381912 819.931641,166.947479 
	C830.569580,161.239822 840.821228,159.292740 852.508911,163.066010 
	C842.769958,167.968323 834.130554,173.082001 828.627869,182.518677 
	C882.713440,212.509750 916.997131,257.081818 926.417603,318.297546 
	C933.647461,365.278442 924.901917,409.812500 897.808105,449.770721 
	C843.693665,529.578979 743.253479,552.560913 663.323669,512.688416 
	C574.848999,468.553406 541.996643,371.943970 570.185791,288.125641 
	C601.346069,195.473160 698.107971,143.096375 795.975647,169.804047 
	C801.673401,161.671600 803.450867,152.316193 803.128906,142.588577 
	C802.821472,133.299744 799.844177,124.629379 795.223206,116.549690 
	C794.481079,115.252052 793.801575,113.918602 793.089417,112.260132 
	C793.085754,111.918556 793.054443,111.967674 793.054443,111.967674 
z"/>
<path fill="#017980" opacity="1.000000" stroke="none" 
	d="
M793.107483,111.899139 
	C793.129211,111.879723 792.655457,111.865662 792.655457,111.865662 
	C792.655457,111.865662 792.881470,111.801346 792.967957,111.884506 
	C793.054443,111.967674 793.085754,111.918556 793.107483,111.899139 
z"/>
</svg>